



<svg xmlns="http://www.w3.org/2000/svg" xmlns:xlink="http://www.w3.org/1999/xlink" height="357.651" viewBox="0 0 524.694 357.651" width="524.694"><linearGradient id="a" gradientUnits="objectBoundingBox" x1="-6.244" x2="-5.244" y1=".5" y2=".5"><stop offset=".226" stop-color="#ff2d2b"/><stop offset=".502" stop-color="#ff4326"/><stop offset=".773" stop-color="#ff5123"/><stop offset="1" stop-color="#ff5722"/></linearGradient><linearGradient id="b" x1="-30.656" x2="-29.656" xlink:href="#a" y1=".5" y2=".5"/><linearGradient id="c" x1="-12.328" x2="-11.328" xlink:href="#a" y1=".5" y2=".5"/><linearGradient id="d" gradientUnits="objectBoundingBox" x1="9.397" x2="10.383" y1="10.984" y2="10.984"><stop offset="0" stop-color="#d5dcfb"/><stop offset=".466" stop-color="#e6eafc"/><stop offset="1" stop-color="#fff"/></linearGradient><path d="m566.266 1464.592a104.206 104.206 0 0 1 -8.021-8.829 153.753 153.753 0 0 1 -32.32-75.245c-4.06-29.758 2.624-61.938 30.327-78.015 11.89-6.9 25.391-10.448 38.78-13.569 48.8-11.374 98.521-18.112 147.522-28.5 24.692-5.236 49.23-11.382 73.14-19.519 33.833-11.514 57.353-37.323 95.2-38.117 59.459-1.248 103.378 43.615 97.585 102.9-11.77 120.418-117.22 228.652-239.135 236.805a210.689 210.689 0 0 1 -63.173-5.306c-29.993-7.2-58.224-20.648-85.228-35.953-18.972-10.759-38.865-21.092-54.677-36.652z" fill="#ffc633" opacity=".814" transform="translate(-484.296 -1185.316)" style="&#10;    fill: #ffc633;&#10;"/><path d="m488.086 1329.1a35.593 35.593 0 0 1 -1.859-3.617 52.423 52.423 0 0 1 -3.981-27.636c1.3-10.157 6.348-20.161 16.892-23 4.526-1.22 9.285-1.192 13.97-1.035 17.075.576 34.042 2.758 51.1 3.674a216.94 216.94 0 0 0 25.811.048c12.158-.8 22.188-7.211 34.719-4.122 19.687 4.853 30.177 23.512 23.021 42.518-14.536 38.607-58.838 64.909-99.7 56.8a71.844 71.844 0 0 1 -20.331-7.339c-9.238-5.026-17.343-11.953-24.879-19.383-5.298-5.219-10.934-10.382-14.763-16.908z" fill="" opacity=".14" transform="translate(-481.829 -1189.32)" style="&#10;    fill: #ffc633;&#10;"/><path d="m562.939 1262.52a8.069 8.069 0 0 1 .554.587 6.478 6.478 0 0 1 1.737 4.206c-.035 1.469-.989 2.812-3.482 2.94a18.938 18.938 0 0 1 -3.378-.234c-4.181-.559-8.379-1.354-12.565-1.963-2.109-.306-4.216-.567-6.3-.723-2.943-.219-5.212.453-8.354-.351-4.936-1.266-8.011-4.322-6.794-6.94 2.474-5.318 12.549-7.986 22.741-5.651a31.868 31.868 0 0 1 5.162 1.651 43.058 43.058 0 0 1 6.605 3.562 26.886 26.886 0 0 1 4.074 2.916z" fill="#ffc633" opacity=".51" transform="translate(-484.253 -1188.228)"/><path d="m956.056 1335.726-3.93 4.779-1.491-1.737a.761.761 0 0 1 0-.985l2.942-3.481 1.932.258a.711.711 0 0 1 .547 1.166z" fill="#fff" transform="translate(-533.012 -1194.237)"/></svg>