<svg height="200" version="1.1" width="200" xmlns="http://www.w3.org/2000/svg" style="overflow: hidden;position: relative;margin: auto;"><path fill="#fff" stroke="none" d="M99.485,78.458C71.347,62.233,51.527,91.22,44.166,99.629C45.349999999999994,130.053,69.985,154.354,100.21799999999999,154.354C131.207,154.354,156.326,128.828,156.326,97.33900000000001C156.326,93.06500000000001,155.84699999999998,88.90500000000002,154.971,84.89900000000002C151.029,87.494,132.348,97.408,99.485,78.458L99.485,78.458ZM184.609,78.816H177.011C168.92499999999998,42.801,137.302,15.923000000000002,99.49799999999999,15.923000000000002C61.69399999999999,15.923000000000002,30.07199999999999,42.801,21.986999999999995,78.816H14.39C9.651,78.816,5.813000000000001,82.729,5.813000000000001,87.553V118.56C5.813000000000001,123.388,9.651,127.295,14.39,127.295H22.107C23.503999999999998,127.295,24.593,127.024,25.442999999999998,126.526C35.903,153.655,60.318999999999996,173.632,89.691,177.315C91.97500000000001,180.85399999999998,95.894,183.192,100.354,183.192C107.411,183.192,113.128,177.346,113.128,170.13500000000002C113.128,162.92300000000003,107.409,157.07700000000003,100.354,157.07700000000003C96.161,157.07700000000003,92.453,159.15000000000003,90.125,162.34000000000003C59.233000000000004,157.39500000000004,35.613,130.39100000000002,35.613,97.81300000000003C35.613,61.72500000000003,64.594,32.47000000000003,100.341,32.47000000000003S165.07,61.72500000000002,165.07,97.81300000000003C165.07,108.57300000000004,162.476,118.71700000000003,157.912,127.66900000000004L158.267,127.44300000000004L173.236,127.31600000000005C173.265,127.24200000000005,173.291,127.16500000000005,173.32,127.08800000000005C173.875,127.21800000000005,174.48999999999998,127.29100000000005,175.189,127.29100000000005H184.611C189.349,127.29100000000005,193.18699999999998,123.38400000000006,193.18699999999998,118.55600000000005V87.553C193.186,82.729,189.348,78.816,184.609,78.816L184.609,78.816Z" style="-webkit-tap-highlight-color: rgba(0, 0, 0, 0);"></path><path fill="#00051a" stroke="none" d="M118.5,136.625C120.333,140.194,111.057,145.5,101.875,145.5S82.25,140.194,85.25,136.625C88.404,132.873,92.693,138.75,101.875,138.75S116.261,132.265,118.5,136.625Z" style="-webkit-tap-highlight-color: rgba(0, 0, 0, 0);"></path><circle cx="77.88" cy="106.63" r="11.38" fill="#00051a" stroke="none" style="-webkit-tap-highlight-color: rgba(0, 0, 0, 0);"></circle><circle cx="120.88" cy="106.63" r="11.38" fill="#00051a" stroke="none" style="-webkit-tap-highlight-color: rgba(0, 0, 0, 0);"></circle></svg>